<svg xmlns="http://www.w3.org/2000/svg" viewBox="0 0 320 380" width="320" height="380">
  <g stroke="#3B2E22" stroke-width="5" stroke-linejoin="round">
    <g transform="rotate(-24 160 258)">
      <rect x="114" y="128" width="92" height="130" rx="14" fill="#F4E6C8" />
      <rect x="123" y="137" width="74" height="88" rx="8" fill="#3FA67C" stroke="none" />
    </g>
    <g transform="rotate(-8 160 258)">
      <rect x="114" y="128" width="92" height="130" rx="14" fill="#F4E6C8" />
      <rect x="123" y="137" width="74" height="88" rx="8" fill="#4E4C90" stroke="none" />
    </g>
    <g transform="rotate(8 160 258)">
      <rect x="114" y="128" width="92" height="130" rx="14" fill="#F4E6C8" />
      <rect x="123" y="137" width="74" height="88" rx="8" fill="#F3A93E" stroke="none" />
    </g>
    <g transform="rotate(24 160 258)">
      <rect x="114" y="128" width="92" height="130" rx="14" fill="#F4E6C8" />
      <rect x="123" y="137" width="74" height="88" rx="8" fill="#E8596B" stroke="none" />
    </g>
  </g>

  <text x="160" y="312" text-anchor="middle"
        font-family="'Arial Rounded MT Bold','Helvetica Rounded',Arial,sans-serif"
        font-size="70" font-weight="800" letter-spacing="-2"
        fill="none" stroke="#FBF2E1" stroke-width="14" stroke-linejoin="round">TCG</text>
  <text x="160" y="312" text-anchor="middle"
        font-family="'Arial Rounded MT Bold','Helvetica Rounded',Arial,sans-serif"
        font-size="70" font-weight="800" letter-spacing="-2"
        fill="#4E5A8E">TCG</text>

  <text x="160" y="348" text-anchor="middle"
        font-family="Verdana,'Trebuchet MS',sans-serif"
        font-size="20" letter-spacing="6"
        fill="#3B2E22">colecionador</text>
</svg>
